<?xml version="1.0" encoding="UTF-8"?>
<svg width="381px" height="319px" viewBox="0 0 381 319" version="1.1" xmlns="http://www.w3.org/2000/svg" xmlns:xlink="http://www.w3.org/1999/xlink">
    <!-- Generator: Sketch 47 (45396) - http://www.bohemiancoding.com/sketch -->
    <title>ilustration</title>
    <desc>Created with Sketch.</desc>
    <defs>
        <polyline id="path-1" points="0 0.837826415 380.217091 0.837826415 380.217091 318.839497 0 318.839497"></polyline>
    </defs>
    <g id="Page-1" stroke="none" stroke-width="1" fill="none" fill-rule="evenodd">
        <g id="GSoC" transform="translate(-678.000000, -2003.000000)">
            <g id="Latest-News" transform="translate(170.000000, 1904.000000)">
                <g id="ilustration" transform="translate(508.000000, 99.000000)">
                    <g id="Group-3" opacity="0.382695896">
                        <mask id="mask-2" fill="white">
                            <use xlink:href="#path-1"></use>
                        </mask>
                        <g id="Clip-2"></g>
                        <path d="M350.419871,145.711861 C350.419871,225.72312 285.671941,290.586012 205.802493,290.586012 C125.933045,290.586012 61.1851152,225.72312 61.1851152,145.711861 C61.1851152,65.700602 125.933045,0.83771005 205.802493,0.83771005 C285.671941,0.83771005 350.419871,65.700602 350.419871,145.711861" id="Fill-1" fill="#9AADB5" opacity="0.495102612" mask="url(#mask-2)"></path>
                    </g>
                    <g id="clouds" opacity="0.310517724" transform="translate(0.000000, 116.000000)" fill="#FFFFFF">
                        <path d="M347.222608,128.674478 C347.248163,128.674478 347.303919,128.210776 347.303919,127.669208 C347.303919,109.260559 332.388001,94.637073 313.988489,94.637073 C301.911486,94.637073 291.367775,101.239316 285.525001,110.863181 C283.043855,109.823046 280.321098,108.718992 277.462437,108.718992 C266.069608,108.718992 256.826873,113.56637 256.609656,128.674478 L347.222608,128.674478 Z" id="Fill-4"></path>
                        <path d="M380.095938,128.674478 C380.138917,128.674478 380.216743,128.482722 380.216743,128.070154 C380.216743,121.860722 375.185917,117.126073 368.978405,117.126073 C362.770892,117.126073 357.740066,121.709641 357.740066,127.920235 C357.740066,128.332803 357.817892,128.674478 357.860871,128.674478 L380.095938,128.674478 Z" id="Fill-6"></path>
                        <path d="M111.158376,34.5393432 C111.286151,34.5393432 111.393016,33.6223973 111.393016,32.8251541 C111.393016,25.1083973 105.140202,19.1604514 97.4272756,19.1604514 C95.9462543,19.1604514 94.5477055,19.6067216 93.2083976,20.0343973 C87.1147207,8.53015405 75.0377177,0.7611 61.1172787,0.7611 C48.0761598,0.7611 36.6740378,7.70153243 30.2713793,18.0296676 C27.8378579,17.1441 25.2208061,16.0388838 22.4806262,16.0388838 C11.1528457,16.0388838 1.781175,22.9177216 0.000464634147,34.5393432 L111.158376,34.5393432 Z" id="Fill-9"></path>
                    </g>
                    <g id="Group-4" opacity="0.435809235" transform="translate(72.000000, 14.000000)" fill="#FFFFFF">
                        <polygon id="Fill-11" points="111.116602 256.731591 114.414994 256.731591 114.414994 253.431573 116.741902 251.103519 114.414994 248.7743 114.414994 245.475446 111.116602 245.475446 108.788531 243.146228 106.461623 245.475446 103.163231 245.475446 103.163231 248.7743 100.836323 251.103519 103.163231 253.431573 103.163231 256.731591 106.461623 256.731591 108.788531 259.06081"></polygon>
                        <path d="M29.3952464,102.877205 C29.3952464,104.162291 28.3539551,105.205259 27.0683384,105.205259 C25.7838852,105.205259 24.7414305,104.162291 24.7414305,102.877205 C24.7414305,101.592118 25.7838852,100.54915 27.0683384,100.54915 C28.3539551,100.54915 29.3952464,101.592118 29.3952464,102.877205" id="Fill-13"></path>
                        <path d="M259.759133,143.618163 C259.759133,144.903249 258.717842,145.946217 257.432225,145.946217 C256.147772,145.946217 255.105317,144.903249 255.105317,143.618163 C255.105317,142.333076 256.147772,141.290108 257.432225,141.290108 C258.717842,141.290108 259.759133,142.333076 259.759133,143.618163" id="Fill-15"></path>
                        <path d="M208.567158,243.724516 C208.567158,245.009603 207.525867,246.052571 206.24025,246.052571 C204.955797,246.052571 203.913342,245.009603 203.913342,243.724516 C203.913342,242.43943 204.955797,241.396462 206.24025,241.396462 C207.525867,241.396462 208.567158,242.43943 208.567158,243.724516" id="Fill-17"></path>
                        <polygon id="Fill-19" points="192.09393 27.1961027 195.392322 27.1961027 195.392322 23.8960851 197.71923 21.5680303 195.392322 19.2388116 195.392322 15.939958 192.09393 15.939958 189.765858 13.6107392 187.43895 15.939958 184.140558 15.939958 184.140558 19.2388116 181.81365 21.5680303 184.140558 23.8960851 184.140558 27.1961027 187.43895 27.1961027 189.765858 29.5253214"></polygon>
                        <path d="M173.663539,2.77085075 C173.663539,4.05593697 172.622248,5.09890549 171.336631,5.09890549 C170.052178,5.09890549 169.009723,4.05593697 169.009723,2.77085075 C169.009723,1.48576454 170.052178,0.442796012 171.336631,0.442796012 C172.622248,0.442796012 173.663539,1.48576454 173.663539,2.77085075" id="Fill-21"></path>
                        <path d="M92.2217609,16.7391792 C92.2217609,18.0242654 91.1804696,19.0672339 89.894853,19.0672339 C88.6103998,19.0672339 87.567945,18.0242654 87.567945,16.7391792 C87.567945,15.454093 88.6103998,14.4111245 89.894853,14.4111245 C91.1804696,14.4111245 92.2217609,15.454093 92.2217609,16.7391792" id="Fill-23"></path>
                        <path d="M31.7221543,34.1995898 C31.7221543,35.484676 30.680863,36.5276445 29.3952464,36.5276445 C28.1107932,36.5276445 27.0683384,35.484676 27.0683384,34.1995898 C27.0683384,32.9145035 28.1107932,31.871535 29.3952464,31.871535 C30.680863,31.871535 31.7221543,32.9145035 31.7221543,34.1995898" id="Fill-25"></path>
                        <path d="M84.5751924,34.3499821 C84.5751924,35.1845897 83.8992256,35.8608896 83.0650291,35.8608896 C82.2308326,35.8608896 81.5537024,35.1845897 81.5537024,34.3499821 C81.5537024,33.5153745 82.2308326,32.8390746 83.0650291,32.8390746 C83.8992256,32.8390746 84.5751924,33.5153745 84.5751924,34.3499821" id="Fill-27"></path>
                        <path d="M163.690063,58.7945569 C163.690063,59.6291645 163.014096,60.3054644 162.179899,60.3054644 C161.345703,60.3054644 160.668573,59.6291645 160.668573,58.7945569 C160.668573,57.9599492 161.345703,57.2836493 162.179899,57.2836493 C163.014096,57.2836493 163.690063,57.9599492 163.690063,58.7945569" id="Fill-29"></path>
                        <path d="M107.346663,126.157752 C107.346663,127.442838 106.305371,128.485807 105.019755,128.485807 C103.735301,128.485807 102.692847,127.442838 102.692847,126.157752 C102.692847,124.872666 103.735301,123.829697 105.019755,123.829697 C106.305371,123.829697 107.346663,124.872666 107.346663,126.157752" id="Fill-33"></path>
                        <path d="M97.3731861,182.181458 C97.3731861,183.016066 96.6972193,183.692366 95.8630228,183.692366 C95.0288263,183.692366 94.3516961,183.016066 94.3516961,182.181458 C94.3516961,181.346851 95.0288263,180.670551 95.8630228,180.670551 C96.6972193,180.670551 97.3731861,181.346851 97.3731861,182.181458" id="Fill-35"></path>
                        <path d="M245.797685,50.4959729 C245.797685,51.7810592 244.756394,52.8240277 243.470777,52.8240277 C242.186324,52.8240277 241.143869,51.7810592 241.143869,50.4959729 C241.143869,49.2108867 242.186324,48.1679182 243.470777,48.1679182 C244.756394,48.1679182 245.797685,49.2108867 245.797685,50.4959729" id="Fill-37"></path>
                        <path d="M242.804933,101.86357 C242.804933,102.698177 242.128966,103.374477 241.294769,103.374477 C240.460573,103.374477 239.783443,102.698177 239.783443,101.86357 C239.783443,101.028962 240.460573,100.352662 241.294769,100.352662 C242.128966,100.352662 242.804933,101.028962 242.804933,101.86357" id="Fill-39"></path>
                        <path d="M209.064768,134.456336 C209.064768,135.290944 208.388801,135.967243 207.554604,135.967243 C206.720408,135.967243 206.043278,135.290944 206.043278,134.456336 C206.043278,133.621728 206.720408,132.945428 207.554604,132.945428 C208.388801,132.945428 209.064768,133.621728 209.064768,134.456336" id="Fill-41"></path>
                        <path d="M156.709339,203.133951 C156.709339,203.968558 156.033372,204.644858 155.199175,204.644858 C154.364979,204.644858 153.687849,203.968558 153.687849,203.133951 C153.687849,202.299343 154.364979,201.623043 155.199175,201.623043 C156.033372,201.623043 156.709339,202.299343 156.709339,203.133951" id="Fill-43"></path>
                        <path d="M213.718583,194.985759 C213.718583,195.820367 213.042617,196.496667 212.20842,196.496667 C211.374224,196.496667 210.697093,195.820367 210.697093,194.985759 C210.697093,194.151152 211.374224,193.474852 212.20842,193.474852 C213.042617,193.474852 213.718583,194.151152 213.718583,194.985759" id="Fill-45"></path>
                        <path d="M196.266774,132.128281 C196.266774,132.962889 195.590807,133.639189 194.756611,133.639189 C193.922414,133.639189 193.245284,132.962889 193.245284,132.128281 C193.245284,131.293674 193.922414,130.617374 194.756611,130.617374 C195.590807,130.617374 196.266774,131.293674 196.266774,132.128281" id="Fill-47"></path>
                        <path d="M3.13341424,99.5355148 C3.13341424,100.370122 2.45744748,101.046422 1.62325098,101.046422 C0.789054485,101.046422 0.111924272,100.370122 0.111924272,99.5355148 C0.111924272,98.7009072 0.789054485,98.0246073 1.62325098,98.0246073 C2.45744748,98.0246073 3.13341424,98.7009072 3.13341424,99.5355148" id="Fill-49"></path>
                        <path d="M31.0563096,64.6146937 C31.0563096,65.4493013 30.3803428,66.1256013 29.5461463,66.1256013 C28.7119498,66.1256013 28.0348196,65.4493013 28.0348196,64.6146937 C28.0348196,63.7800861 28.7119498,63.1037862 29.5461463,63.1037862 C30.3803428,63.1037862 31.0563096,63.7800861 31.0563096,64.6146937" id="Fill-51"></path>
                        <path d="M56.652297,144.932582 C56.652297,145.76719 55.9763303,146.44349 55.1421338,146.44349 C54.3079373,146.44349 53.630807,145.76719 53.630807,144.932582 C53.630807,144.097975 54.3079373,143.421675 55.1421338,143.421675 C55.9763303,143.421675 56.652297,144.097975 56.652297,144.932582" id="Fill-53"></path>
                        <path d="M114.824996,86.7312138 C114.824996,87.5658214 114.149029,88.2421213 113.314832,88.2421213 C112.480636,88.2421213 111.803506,87.5658214 111.803506,86.7312138 C111.803506,85.8966061 112.480636,85.2203062 113.314832,85.2203062 C114.149029,85.2203062 114.824996,85.8966061 114.824996,86.7312138" id="Fill-55"></path>
                        <path d="M15.9314079,194.985759 C15.9314079,195.820367 15.2554412,196.496667 14.4212447,196.496667 C13.5870482,196.496667 12.909918,195.820367 12.909918,194.985759 C12.909918,194.151152 13.5870482,193.474852 14.4212447,193.474852 C15.2554412,193.474852 15.9314079,194.151152 15.9314079,194.985759" id="Fill-57"></path>
                        <path d="M157.872793,178.689376 C157.872793,179.523984 157.196826,180.200284 156.362629,180.200284 C155.528433,180.200284 154.851303,179.523984 154.851303,178.689376 C154.851303,177.854768 155.528433,177.178469 156.362629,177.178469 C157.196826,177.178469 157.872793,177.854768 157.872793,178.689376" id="Fill-59"></path>
                        <path d="M86.9021003,232.234635 C86.9021003,233.069243 86.2261336,233.745543 85.3919371,233.745543 C84.5577406,233.745543 83.8806103,233.069243 83.8806103,232.234635 C83.8806103,231.400027 84.5577406,230.723728 85.3919371,230.723728 C86.2261336,230.723728 86.9021003,231.400027 86.9021003,232.234635" id="Fill-61"></path>
                    </g>
                    <polygon id="Fill-63" fill="#727272" points="190 203.003533 186.142988 205 148 132.996467 151.857012 131"></polygon>
                    <polygon id="Fill-65" fill="#727272" points="143 203.714331 137.705612 208 133 198.902413 139.527139 197"></polygon>
                    <polygon id="Fill-67" fill="#727272" points="132 182.714331 126.705612 187 122 177.902413 128.527139 176"></polygon>
                    <polygon id="Fill-69" fill="#A8A7A2" points="195 171.495383 188.086272 175 177 154.504617 183.913728 151"></polygon>
                    <polygon id="Fill-71" fill="#898989" points="202 167.495383 195.086272 171 184 150.504617 190.913728 147"></polygon>
                    <polygon id="Fill-73" fill="#898989" points="207 158.500332 196.783375 164 195 160.498473 205.216625 155"></polygon>
                    <polygon id="Fill-75" fill="#898989" points="204 151.500332 193.783375 157 192 153.498473 202.216625 148"></polygon>
                    <polygon id="Fill-77" fill="#727272" points="217 156.237629 205.986178 162 198 146.762371 209.014979 141"></polygon>
                    <polygon id="Fill-79" fill="#6B5E5A" points="170 191.240609 147.713404 203 132 172.759391 154.285435 161"></polygon>
                    <path d="M208.369906,102 C195.999719,108.527946 194.271048,131.747191 205.490708,153.342574 C216.711519,174.937957 236.629813,186.732136 249,180.20419 L208.369906,102 Z" id="Fill-81" fill="#D1D0D0"></path>
                    <path d="M257.371326,125.94944 C258.78027,128.640287 257.7414,131.962424 255.050497,133.371339 C252.360804,134.780254 249.037387,133.741406 247.628443,131.05056 C246.219498,128.360923 247.259577,125.037576 249.949271,123.628661 C252.640174,122.219746 255.962381,123.258594 257.371326,125.94944" id="Fill-83" fill="#727272"></path>
                    <polygon id="Fill-85" fill="#D1D0D0" points="205 182.614419 200.518705 185 176 137.386752 180.481295 135"></polygon>
                    <polygon id="Fill-87" fill="#727272" points="251 131.510938 234.806832 140 233 136.487863 249.193168 128"></polygon>
                    <polygon id="Fill-89" fill="#898989" points="257 175.611254 248.710241 180 208 101.388746 216.289759 97"></polygon>
                    <polygon id="Fill-91" fill="#9B9B9B" points="229 123.323929 223.845651 126 211 101.677227 216.154349 99"></polygon>
                    <polygon id="Fill-93" fill="#D1D0D0" points="166.881277 200 198 183.702745 175.118723 140 144 156.296096"></polygon>
                    <polygon id="Fill-95" fill="#D1D0D0" points="152.804708 201.308033 165 202 142.230843 158 136 168.834593"></polygon>
                    <polygon id="Fill-97" fill="#D1D0D0" points="152 202.462964 145.649618 213 123 169 135.284364 169.989524"></polygon>
                    <polygon id="Fill-99" fill="#765A9C" points="176.641251 174 171 170.586725 171.358175 164.087289 177.358749 161 183 164.413275 182.641825 170.912711"></polygon>
                    <polygon id="Fill-101" fill="#A8A7A2" points="170.929751 185 174 183.426813 163.070249 163 160 164.573187"></polygon>
                    <polygon id="Fill-103" fill="#A8A7A2" points="165.929751 187 169 185.426813 158.070249 165 155 166.573187"></polygon>
                    <polygon id="Fill-105" fill="#A5A5A5" points="171 129.029725 134.860397 148 80 42.9702748 116.139603 24"></polygon>
                    <polygon id="Fill-107" fill="#969696" opacity="0.505072295" points="119 112.152896 149.847104 96 166 126.848258 135.152896 143"></polygon>
                    <polygon id="Fill-109" fill="#969696" opacity="0.505072295" points="102 78.1528961 132.847104 62 149 92.8482579 118.152896 109"></polygon>
                    <polygon id="Fill-111" fill="#969696" opacity="0.505072295" points="84 44.1528961 114.847104 28 131 58.8482579 100.152896 75"></polygon>
                    <polyline id="Fill-113" fill="#AFAFAF" points="114.767648 28 131 58.8471039 100 75"></polyline>
                    <polyline id="Fill-115" fill="#AFAFAF" points="132.767648 62 149 92.8471039 118 109"></polyline>
                    <polyline id="Fill-117" fill="#AFAFAF" points="150.767648 97 167 127.847104 136 144"></polyline>
                    <polygon id="Fill-119" fill="#A5A5A5" points="260 300.029725 223.860397 319 169 213.970275 205.139603 195"></polygon>
                    <polygon id="Fill-121" fill="#969696" opacity="0.505072295" points="210 283.152896 240.847104 267 257 297.848258 226.152896 314"></polygon>
                    <polygon id="Fill-123" fill="#969696" opacity="0.505072295" points="192 249.152896 222.847104 233 239 263.848258 208.152896 280"></polygon>
                    <polygon id="Fill-125" fill="#969696" opacity="0.505072295" points="174 215.152896 204.847104 199 221 229.848258 190.152896 246"></polygon>
                    <polyline id="Fill-127" fill="#AFAFAF" points="204.767648 199 221 229.847104 190 246"></polyline>
                    <polyline id="Fill-129" fill="#AFAFAF" points="222.767648 233 239 263.847104 208 280"></polyline>
                    <polyline id="Fill-131" fill="#AFAFAF" points="240.767648 267 257 297.847104 226 314"></polyline>
                    <path d="M253.657286,126.608746 C254.425322,128.075795 253.859273,129.888744 252.390933,130.656737 C250.923801,131.425941 249.110751,130.858714 248.342714,129.391664 C247.574678,127.923406 248.140727,126.111666 249.609067,125.342463 C251.076199,124.57447 252.889249,125.141696 253.657286,126.608746" id="Fill-133" fill="#878787"></path>
                    <g id="Group-2" transform="translate(267.000000, 63.000000)" stroke="#8C8C8C">
                        <path d="M6.4001497,55.800888 C9.06328689,61.2147582 10.7138113,65.8577026 10.088543,66.1707101 C9.4621253,66.4837176 6.79668933,62.3485409 4.13355213,56.9346707 C1.47041494,51.5208004 -0.180109451,46.8790153 0.445158841,46.5648486 C1.07157652,46.2518411 3.7370125,50.3870178 6.4001497,55.800888 L6.4001497,55.800888 Z" id="Stroke-135"></path>
                        <path d="M25.4840506,44.3438866 C31.0585933,55.6793947 34.2527488,65.5310155 32.6171665,66.3494722 C30.9815841,67.1679288 25.1369348,58.6425323 19.5612427,47.3070241 C13.9867,35.9715159 10.7925445,26.1198951 12.4281268,25.3014385 C14.0637091,24.4829819 19.9095079,33.0083784 25.4840506,44.3438866 L25.4840506,44.3438866 Z" id="Stroke-137"></path>
                        <path d="M45.5102216,32.7971563 C54.9133832,51.914958 60.0362155,68.6620178 56.9547003,70.2050288 C53.8720357,71.7468805 43.7516546,57.4992434 34.348493,38.3814417 C24.9464808,19.2647993 19.8224991,2.51658019 22.9051637,0.974728499 C25.986679,-0.568282481 36.1082095,13.6793546 45.5102216,32.7971563 L45.5102216,32.7971563 Z" id="Stroke-139"></path>
                    </g>
                </g>
            </g>
        </g>
    </g>
</svg>